<?xml version="1.0" encoding="utf-8"?>
<!-- Generator: Adobe Illustrator 24.2.0, SVG Export Plug-In . SVG Version: 6.00 Build 0)  -->
<svg version="1.1" xmlns="http://www.w3.org/2000/svg" xmlns:xlink="http://www.w3.org/1999/xlink" x="0px" y="0px"
	 viewBox="0 0 1024 1024" style="enable-background:new 0 0 1024 1024;" xml:space="preserve">
<style type="text/css">
	.st0{fill:#FFFFFF;}
	.st1{fill-rule:evenodd;clip-rule:evenodd;fill:url(#SVGID_1_);}
	.st2{fill-rule:evenodd;clip-rule:evenodd;fill:url(#SVGID_2_);}
	.st3{fill-rule:evenodd;clip-rule:evenodd;fill:url(#SVGID_3_);}
	.st4{fill-rule:evenodd;clip-rule:evenodd;fill:url(#SVGID_4_);}
	.st5{fill-rule:evenodd;clip-rule:evenodd;}
	.st6{fill:none;stroke:#000000;stroke-width:2.2;stroke-miterlimit:10;}
	.st7{fill:none;stroke:#000000;stroke-width:0.8;stroke-linejoin:round;stroke-miterlimit:10;}
</style>
<g id="background">
	<g>
		<rect class="st0" width="1024" height="1024"/>
	</g>
</g>
<g id="logo">
	<g>
		<linearGradient id="SVGID_1_" gradientUnits="userSpaceOnUse" x1="903.6988" y1="275.7532" x2="-762.5801" y2="1647.4871">
			<stop  offset="0" style="stop-color:#000000"/>
			<stop  offset="0.24" style="stop-color:#080808"/>
			<stop  offset="0.5" style="stop-color:#666666"/>
			<stop  offset="0.76" style="stop-color:#080808"/>
			<stop  offset="1" style="stop-color:#000000"/>
		</linearGradient>
		<path class="st1" d="M56.21,944.19c83.88,101.88,386.81-8.9,676.58-247.42c108.68-89.46,200.09-184.18,267.44-273.01l11.48-16.8
			l-35.12,42.91c-53.92,60.5-117.53,121.79-188.93,180.55c-285.5,234.99-586.8,340.62-672.95,235.94
			c-32.33-39.23-29.8-102.52,1.05-178.6l37.12-74.24l-50.39,73.72C34.99,798.81,14.24,893.27,56.21,944.19z"/>
		<linearGradient id="SVGID_2_" gradientUnits="userSpaceOnUse" x1="-713.443" y1="1434.2614" x2="1786.0957" y2="-623.3946">
			<stop  offset="0" style="stop-color:#666666"/>
			<stop  offset="0.1733" style="stop-color:#080808"/>
			<stop  offset="0.3333" style="stop-color:#000000"/>
			<stop  offset="0.4933" style="stop-color:#080808"/>
			<stop  offset="0.6667" style="stop-color:#666666"/>
			<stop  offset="0.84" style="stop-color:#080808"/>
			<stop  offset="1" style="stop-color:#000000"/>
		</linearGradient>
		<path class="st2" d="M967.27,79.93c-83.88-101.88-386.81,8.9-676.64,247.42C181.95,416.81,90.59,511.53,23.19,600.36l-11.48,16.8
			l35.12-42.91c53.92-60.5,117.58-121.79,188.93-180.5c285.5-235.05,586.8-340.67,673-235.99c32.28,39.23,29.75,102.52-1.05,178.65
			L870.6,410.6l50.39-73.72C988.44,225.36,1009.19,130.85,967.27,79.93z"/>
		<linearGradient id="SVGID_3_" gradientUnits="userSpaceOnUse" x1="1436.8668" y1="1737.2593" x2="-620.8132" y2="-762.3088">
			<stop  offset="0" style="stop-color:#F4B183"/>
			<stop  offset="0.1733" style="stop-color:#EE8137"/>
			<stop  offset="0.3333" style="stop-color:#B0500F"/>
			<stop  offset="0.4933" style="stop-color:#EE8137"/>
			<stop  offset="0.6667" style="stop-color:#F4B183"/>
			<stop  offset="0.84" style="stop-color:#EE8137"/>
			<stop  offset="1" style="stop-color:#B0500F"/>
		</linearGradient>
		<path class="st3" d="M82.49,56.55c-101.89,83.88,8.9,386.79,247.49,676.6c89.46,108.62,184.14,200.03,273.02,267.43l16.8,11.48
			l-42.97-35.12c-60.5-53.97-121.74-117.58-180.51-188.97C161.31,502.53,55.63,201.24,160.31,115.05
			c39.28-32.28,102.52-29.8,178.66,1.05l74.19,37.12l-73.72-50.39C227.92,35.39,133.46,14.59,82.49,56.55z"/>
		<linearGradient id="SVGID_4_" gradientUnits="userSpaceOnUse" x1="-407.5339" y1="-713.1064" x2="1650.0568" y2="1786.415">
			<stop  offset="0" style="stop-color:#F4B183"/>
			<stop  offset="0.1733" style="stop-color:#EE8137"/>
			<stop  offset="0.3333" style="stop-color:#B0500F"/>
			<stop  offset="0.4933" style="stop-color:#EE8137"/>
			<stop  offset="0.6667" style="stop-color:#F4B183"/>
			<stop  offset="0.84" style="stop-color:#EE8137"/>
			<stop  offset="1" style="stop-color:#B0500F"/>
		</linearGradient>
		<path class="st4" d="M946.79,967.57c101.94-83.88-8.85-386.79-247.43-676.55C609.89,182.34,515.16,90.94,426.33,23.59l-16.8-11.53
			l42.92,35.12c60.5,53.97,121.79,117.58,180.56,188.97C868.02,521.59,973.7,822.88,869.02,909.07
			c-39.28,32.33-102.52,29.8-178.66-1.05l-74.25-37.12l73.72,50.39C801.4,988.73,895.87,1009.53,946.79,967.57z"/>
		<polygon class="st5" points="551.13,489.63 503.21,541.23 455.29,489.63 		"/>
		<line class="st6" x1="503.29" y1="525.96" x2="503.29" y2="571.54"/>
		<polygon class="st5" points="503.44,559.87 550.31,612.53 536.88,612.53 503.44,574.93 470.01,612.53 456.58,612.53 		"/>
		<path class="st5" d="M284.9,502.27l108.16,26.96v1.16l-108.37-27.01L284.9,502.27z M723.63,502.27l0.21,1.11l-108.37,27.01v-1.16
			L723.63,502.27z M615.47,584.72l108.37,27.01l-0.21,1.11l-108.16-26.96V584.72z M393.05,584.72v1.16L284.9,612.84l-0.21-1.11
			L393.05,584.72z"/>
		<path class="st7" d="M284.9,502.27l108.16,26.96v1.16l-108.37-27.01L284.9,502.27z M723.63,502.27l0.21,1.11l-108.37,27.01v-1.16
			L723.63,502.27z M615.47,584.72l108.37,27.01l-0.21,1.11l-108.16-26.96V584.72z M393.05,584.72v1.16L284.9,612.84l-0.21-1.11
			L393.05,584.72z"/>
		<path class="st5" d="M315.91,416.23c-0.11-27.8,20.43-50.39,45.81-50.49c25.38-0.05,46.02,22.43,46.13,50.23
			c0.11,27.75-20.43,50.39-45.81,50.44C336.66,466.51,316.02,444.03,315.91,416.23z"/>
		<path class="st5" d="M597.47,416.49c-0.11-27.7,20.38-50.23,45.71-50.28c25.33-0.11,45.92,22.27,46.02,50.02
			c0.11,27.7-20.38,50.23-45.71,50.28C618.16,466.62,597.52,444.19,597.47,416.49z"/>
	</g>
</g>
</svg>
