<svg width="512" height="512" xmlns="http://www.w3.org/2000/svg" viewBox="0 0 512 512">
  <defs>
    <radialGradient id="techDarkGrad" cx="50%" cy="50%" r="50%">
      <stop offset="0%" stop-color="#3D2B3D"/>
      <stop offset="100%" stop-color="#271A27"/>
    </radialGradient>

    <filter id="glow" x="-50%" y="-50%" width="200%" height="200%">
      <feGaussianBlur stdDeviation="4" result="coloredBlur"/>
      <feMerge>
        <feMergeNode in="coloredBlur"/>
        <feMergeNode in="SourceGraphic"/>
      </feMerge>
    </filter>
  </defs>

  <circle cx="256" cy="256" r="240" fill="url(#techDarkGrad)" stroke="#FFFFFF" stroke-width="20"/>

  <circle cx="256" cy="256" r="210" fill="none" stroke="#FFB6E5" stroke-width="10"/>

  <g filter="url(#glow)" transform="translate(-30,-10)">
    <polygon points="140,200 256,135 372,200 372,340 256,405 140,340"
             fill="#FF74C1" stroke="#FFFFFF" stroke-width="4"/>
    <polygon points="140,200 256,265 256,405 140,340"
             fill="#B877F5"/>
    <polygon points="372,200 256,265 256,405 372,340"
             fill="#FF9FD6"/>
    <polygon points="140,200 256,265 372,200 256,135"
             fill="#FFFFFF"/>
  </g>

  <g filter="url(#glow)" transform="translate(30,-10)">
    <polygon points="140,200 256,135 372,200 372,340 256,405 140,340"
             fill="#DD6AF4" stroke="#FFFFFF" stroke-width="4"/>
    <polygon points="140,200 256,265 256,405 140,340"
             fill="#C191F8"/>
    <polygon points="372,200 256,265 256,405 372,340"
             fill="#FFA9DC"/>
    <polygon points="140,200 256,265 372,200 256,135"
             fill="#FFFFFF"/>
  </g>
</svg>
